<?xml version="1.0" encoding="utf-8"?>
<!-- Generator: Adobe Illustrator 17.0.0, SVG Export Plug-In . SVG Version: 6.00 Build 0)  -->
<!DOCTYPE svg PUBLIC "-//W3C//DTD SVG 1.1//EN" "http://www.w3.org/Graphics/SVG/1.1/DTD/svg11.dtd">
<svg version="1.1" id="Layer_1" xmlns="http://www.w3.org/2000/svg" xmlns:xlink="http://www.w3.org/1999/xlink" x="0px" y="0px"
	 width="33px" height="30px" viewBox="0 0 33 30" enable-background="new 0 0 33 30" xml:space="preserve">
<g id="Layer_1_1_">
</g>
<circle fill="none" stroke="#FFFFFF" stroke-miterlimit="10" cx="16.5" cy="15.083" r="14.188"/>
<g>
	<path fill="#FFFFFF" d="M16.329,4.136c0.055,0,0.115,0.008,0.171,0.01c0.036-0.001,0.073-0.006,0.109-0.007
		C16.485,4.138,16.367,4.137,16.329,4.136z"/>
	<path fill="#FFFFFF" d="M23.14,22.116c-2.11-0.313-3.588-1.422-3.546-2.629c0.046-1.312-0.063-1.392,0.396-2.205
		s0.938-2.479,0.938-2.479c0.833-0.208,0.875-0.292,1.167-1.958c0.292-1.667-0.625-1.417-0.625-1.417
		c0.542-3.583-1.14-5.656-1.14-5.656c-0.586-0.851-2.394-1.569-3.829-1.625c-1.435,0.055-3.243,0.774-3.829,1.625
		c0,0-1.682,2.073-1.14,5.656c0,0-0.917-0.25-0.625,1.417c0.292,1.667,0.333,1.75,1.167,1.958c0,0,0.479,1.667,0.938,2.479
		s0.35,0.893,0.396,2.205c0.042,1.206-1.435,2.316-3.546,2.629c-3.375,0.5-3.975,1.812-3.975,1.812
		c4.087,4.465,7.875,5.756,11.063,5.577c3.188,0.179,6.08-1.112,10.167-5.577C27.115,23.928,26.515,22.616,23.14,22.116z"/>
	<path fill="#FFFFFF" d="M16.329,4.136c-0.002,0-0.004,0-0.006,0C16.312,4.136,16.315,4.136,16.329,4.136z"/>
	<path fill="#FFFFFF" d="M16.677,4.136c-0.022,0-0.046,0.004-0.068,0.004c0.093,0.001,0.188,0.003,0.255,0.004
		C16.801,4.14,16.737,4.136,16.677,4.136z"/>
	<path fill="#FFFFFF" d="M16.864,4.144c0.028,0.002,0.056,0.003,0.084,0.004C16.972,4.147,16.932,4.145,16.864,4.144z"/>
</g>
</svg>
