<?xml version="1.0" encoding="utf-8"?>
<!-- Generator: Adobe Illustrator 17.0.0, SVG Export Plug-In . SVG Version: 6.00 Build 0)  -->
<!DOCTYPE svg PUBLIC "-//W3C//DTD SVG 1.1//EN" "http://www.w3.org/Graphics/SVG/1.1/DTD/svg11.dtd">
<svg version="1.1" xmlns="http://www.w3.org/2000/svg" xmlns:xlink="http://www.w3.org/1999/xlink" x="0px" y="0px" width="33px"
	 height="30px" viewBox="0 0 33 30" enable-background="new 0 0 33 30" xml:space="preserve">
<g id="Layer_2">
</g>
<g id="Layer_3">
	<g>
		<path fill="#FFFFFF" d="M26.211,4.992v4.54c1.178,0,2.133-0.721,2.133-1.609V6.601C28.344,5.712,27.389,4.992,26.211,4.992z"/>
		<path fill="#FFFFFF" d="M26.211,10.46V15c1.178,0,2.133-0.721,2.133-1.609V12.07C28.344,11.181,27.389,10.46,26.211,10.46z"/>
		<path fill="#FFFFFF" d="M26.211,15.929v4.54c1.178,0,2.133-0.721,2.133-1.609v-1.321C28.344,16.65,27.389,15.929,26.211,15.929z"
			/>
		<path fill="#FFFFFF" d="M26.211,21.398v4.54c1.178,0,2.133-0.721,2.133-1.61v-1.321C28.344,22.118,27.389,21.398,26.211,21.398z"
			/>
	</g>
	<path fill="#FFFFFF" d="M4.656,2.655v2.951H6.71c0.429,0,0.776,0.498,0.776,1.113c0,0.614-0.347,1.112-0.776,1.112H4.656v3.21H6.71
		c0.429,0,0.776,0.498,0.776,1.113s-0.347,1.113-0.776,1.113H4.656v3.209H6.71c0.429,0,0.776,0.498,0.776,1.113
		c0,0.992-0.347,1.184-0.776,1.184H4.656v3.138H6.71c0.429,0,0.776,0.498,0.776,1.112c0,0.615-0.347,1.171-0.776,1.171H4.656v3.152
		H25.06V2.655H4.656z M22.214,20.469h-5.956L9.901,20.41l-0.112-1.983c0,0,0.351-0.768,2.326-1.06
		c1.235-0.183,2.1-0.833,2.075-1.539c-0.027-0.768,0.037-0.815-0.232-1.29s-0.549-1.451-0.549-1.451
		c-0.488-0.122-0.512-0.17-0.683-1.146c-0.171-0.976,0.366-0.829,0.366-0.829c-0.317-2.097,0.667-3.31,0.667-3.31
		c0.343-0.498,1.401-0.919,2.241-0.951c0.84,0.033,1.898,0.453,2.241,0.951c0,0,0.984,1.213,0.667,3.31c0,0,0.537-0.146,0.366,0.829
		c-0.171,0.975-0.195,1.024-0.683,1.146c0,0-0.28,0.975-0.549,1.451s-0.205,0.523-0.232,1.29c-0.025,0.706,0.84,1.355,2.075,1.539
		c1.975,0.293,2.328,1.06,2.328,1.06V20.469z"/>
</g>
</svg>
