<?xml version="1.0" encoding="utf-8"?>
<!-- Generator: Adobe Illustrator 17.0.0, SVG Export Plug-In . SVG Version: 6.00 Build 0)  -->
<!DOCTYPE svg PUBLIC "-//W3C//DTD SVG 1.1//EN" "http://www.w3.org/Graphics/SVG/1.1/DTD/svg11.dtd">
<svg version="1.1" id="Layer_1" xmlns="http://www.w3.org/2000/svg" xmlns:xlink="http://www.w3.org/1999/xlink" x="0px" y="0px"
	 width="33px" height="30px" viewBox="0 0 33 30" enable-background="new 0 0 33 30" xml:space="preserve">
<g id="Layer_1_1_">
</g>
<line fill="none" stroke="#FFFFFF" stroke-width="2" stroke-miterlimit="10" x1="3.019" y1="8.188" x2="31" y2="8.188"/>
<polygon fill="none" stroke="#FFFFFF" stroke-width="2" stroke-miterlimit="10" points="24.042,0.333 9.042,0.333 2.375,8.167 
	2.25,28.875 30.583,28.875 30.688,8.188 "/>
<rect x="11.708" y="3.417" fill="#FFFFFF" width="9.833" height="0.917"/>
<g>
	<ellipse fill="#FFFFFF" cx="23.542" cy="23.84" rx="4" ry="3"/>
	<ellipse fill="#FFFFFF" cx="15.758" cy="20.44" rx="3.927" ry="2.613"/>
	<path fill="#FFFFFF" d="M14.742,23.198c0,0,0,0-0.03,0.112c-0.317,1.173-1.965,2.029-3.878,2.029c-2.186,0-3.958-1.138-3.958-2.542
		c0-1.404,1.772-2.542,3.958-2.542c0.166,0,0.625-0.021,0.614,0.019C11.057,21.73,13.464,23.543,14.742,23.198z"/>
</g>
</svg>
