<?xml version="1.0" encoding="utf-8"?>
<!-- Generator: Adobe Illustrator 17.0.0, SVG Export Plug-In . SVG Version: 6.00 Build 0)  -->
<!DOCTYPE svg PUBLIC "-//W3C//DTD SVG 1.1//EN" "http://www.w3.org/Graphics/SVG/1.1/DTD/svg11.dtd">
<svg version="1.1" id="Layer_1" xmlns="http://www.w3.org/2000/svg" xmlns:xlink="http://www.w3.org/1999/xlink" x="0px" y="0px"
	 width="33px" height="30px" viewBox="0 0 33 30" enable-background="new 0 0 33 30" xml:space="preserve">
<g id="Layer_1_1_">
	<path fill="#FFFFFF" d="M6.449,4.713c0,0-1.865,4.371-1.032,6.037s0.583,3.333,4.5,5.5c3.378,1.869,1.25,2.333,2.917,3.333
		s-0.083,3.083,3.75,4.667s0.667,2.667,0.75,4.583c0,0,1.167-1.5,2.583-2.167c1.417-0.667,2.667-1.083,2.833-3.333
		s0.833-3.75,0.833-3.75s-0.25-0.917-2-0.667s-3.11-1.815-7.388,0.092c0,0-1.529,0.824-1.612-0.842c-0.083-1.667,0.75-1.5,0.75-2.75
		s-1.75-0.917-0.917-2.5s2.167,0.25,5.167-0.083s1.917-2,2.083-3.5c0.167-1.5,2.083,0.167,2.167-0.583s-4.416-3.167-5.333-4.5
		S15.167,1.333,17,1.917s3.083,3.25,7,2.833s2.083,1.886,3,3.235s0.767,0.201,1.57,0.85s1.264,3.249-1.32,4.832
		s-0.167,3.25-0.167,4.583s1.192,1.567,1.471,3.159c0,0,6.872-13.2-5.746-18.993C13.917-1.667,7.428,3.678,6.449,4.713z"/>
</g>
<g id="Layer_2">
	<circle fill="none" stroke="#FFFFFF" stroke-miterlimit="10" cx="16.264" cy="15" r="14.219"/>
</g>
</svg>
