<?xml version="1.0" encoding="utf-8"?>
<!-- Generator: Adobe Illustrator 17.0.0, SVG Export Plug-In . SVG Version: 6.00 Build 0)  -->
<!DOCTYPE svg PUBLIC "-//W3C//DTD SVG 1.1//EN" "http://www.w3.org/Graphics/SVG/1.1/DTD/svg11.dtd">
<svg version="1.1" id="Layer_1" xmlns="http://www.w3.org/2000/svg" xmlns:xlink="http://www.w3.org/1999/xlink" x="0px" y="0px"
	 width="33px" height="30px" viewBox="0 0 33 30" enable-background="new 0 0 33 30" xml:space="preserve">
<g id="new_x5F_vector_x5F_shape_x5F_done_1_" enable-background="new    ">
	<g id="new_x5F_vector_x5F_shape_x5F_done">
		<g>
			<path fill="#FFFFFF" d="M31.99,3.492h-30v11c0.333,0,1.5,0,1.5,0v-9.5c0,0,18.668,0,27.5,0v19.5c-2.964-0.038-10,0-10,0
				s0,0.667,0,1c6.521,0.057,11,0,11,0S32.033,8.945,31.99,3.492z M1.99,15.492l-1,1c0,0,0,6.5,0,10
				c2.828,0.037,8.622,0.016,8.622,0.016v-10l-1-1L1.99,15.492z M8.112,17.008c0,0.333,0,1.031,0,1.031L2.203,18l-0.015-1.063
				C2.188,16.938,6.779,17.008,8.112,17.008z M2.219,19.492l5.893,0.016v1l-5.893-0.016C2.219,20.492,2.219,19.492,2.219,19.492z
				 M2.219,21.711l5.893,0.016v1c-1.924,0.027-5.893-0.016-5.893-0.016S2.219,21.711,2.219,21.711z M8.206,25.008l-5.94-0.016v-1
				l5.94-0.015V25.008z M11.99,20.492l-1,1c0,0,0,3.167,0,5c2.666,0,9,0,9,0v-5l-1-1H11.99z M12.584,24.992v-0.938h5.875
				l0.031,0.938H12.584z M12.49,22.492v-1c1.5,0,5.969,0,5.969,0s0.031,0.566,0.031,1H12.49z"/>
		</g>
	</g>
</g>
<g id="PAY">
	<g enable-background="new    ">
		<path fill="#FFFFFF" d="M14.989,7.564h2.503c0.575,0,1.011,0.148,1.307,0.444c0.296,0.295,0.444,0.71,0.444,1.243
			s-0.148,0.948-0.444,1.247s-0.731,0.445-1.307,0.439h-1.744v2.335h-0.76V7.564z M15.749,10.298h1.488
			c0.432,0.006,0.747-0.082,0.947-0.264c0.199-0.182,0.3-0.442,0.3-0.783c0-0.342-0.101-0.602-0.3-0.78
			c-0.2-0.178-0.516-0.268-0.947-0.268h-1.488V10.298z"/>
		<path fill="#FFFFFF" d="M21.132,7.564h0.84l2.23,5.709h-0.839l-0.624-1.719h-2.415l-0.64,1.719h-0.775L21.132,7.564z
			 M20.564,10.915h1.935l-0.951-2.663h-0.016L20.564,10.915z"/>
		<path fill="#FFFFFF" d="M26.532,10.938v2.335h-0.76v-2.335l-2.207-3.374h0.903l1.711,2.719l1.672-2.719h0.863L26.532,10.938z"/>
	</g>
</g>
</svg>
