<?xml version="1.0" encoding="utf-8"?>
<!-- Generator: Adobe Illustrator 17.0.0, SVG Export Plug-In . SVG Version: 6.00 Build 0)  -->
<!DOCTYPE svg PUBLIC "-//W3C//DTD SVG 1.1//EN" "http://www.w3.org/Graphics/SVG/1.1/DTD/svg11.dtd">
<svg version="1.1" id="Layer_1" xmlns="http://www.w3.org/2000/svg" xmlns:xlink="http://www.w3.org/1999/xlink" x="0px" y="0px"
	 width="33px" height="30px" viewBox="0 0 33 30" enable-background="new 0 0 33 30" xml:space="preserve">
<path fill="#FFFFFF" d="M1.365,0c0.036,0,0.073,0,0.11,0c2.208,3.572,8.141,3.252,12.258,4.94c1.876,0.769,3.764,1.823,5.035,3.196
	c2.04,2.205,3.408,5.087,4.706,8.027c0.508,1.15,1.089,2.281,1.605,3.451c0.188,0.426,0.569,0.849,0.62,1.38
	c-0.012,0-0.024,0-0.036,0c0,0.012,0,0.024,0,0.036c-0.138,0-0.251,0.014-0.328,0.073c-0.091,0.142-0.009,0.213-0.219,0.254
	c-0.26-0.219-0.599-0.347-0.876-0.545c-0.687-0.491-1.339-1.197-1.824-1.889c-0.577-0.824-0.927-1.78-1.459-2.652
	c-0.93-1.524-1.952-3.019-3.393-4.032c-2.235-1.571-5.286-2.213-8.099-3.233C8.54,8.673,7.641,8.481,6.801,8.064
	C5.016,7.177,3.707,6.031,2.605,4.468C1.91,3.481,1.035,1.993,1,0.4c0.076,0.014,0.07,0.009,0.109,0.036
	c0.127,0.125,0.176,0.297,0.365,0.363c0-0.024,0-0.048,0-0.073C1.372,0.578,1.365,0.228,1.365,0z"/>
<path fill="#FFFFFF" d="M13.672,2.875c0.45,0.073,0.96,0.031,1.41,0.103c0.523,0.012,1.16,0.057,1.682,0.069
	c0.501,0.049,0.987,0.038,1.532,0.109c0.596,0.077,1.089,0.151,1.638,0.331c3.072,1.007,4.129,3.205,5.144,6.247
	c0.252,0.755,0.254,1.592,0.438,2.397c0.012,0.242,0.024,0.484,0.037,0.726c0.221,1.003-0.031,2.299,0.219,3.233
	c0.061,0.229,0.344,1.071,0.292,1.199c-0.053,0.092-0.046,0.066-0.182,0.073c-0.063-0.048-0.059-0.063-0.109-0.036
	c-0.114,0.095-0.089,0.157-0.146,0.291c-0.064-0.023-0.035-0.007-0.073-0.036c-0.347-0.131-0.631-0.587-0.839-0.872
	c-0.244-0.333-0.542-0.659-0.766-1.017c-0.311-0.497-0.483-1.035-0.73-1.598c-0.978-2.236-2.128-5.33-3.94-6.683
	c-1.608-1.2-3.502-2.093-5.253-3.16c-0.481-0.293-1.729-0.869-1.824-1.453"/>
<path fill="#FFFFFF" d="M22.707,4.141c0.855,0,1.596,0.344,2.262,0.69c0.956,0.497,1.819,1.034,2.371,1.925
	c1.046,1.687,0.702,5.044,0.219,7.119c-0.122,0.525-0.127,1.52,0,2.034c0.053,0.213,0.245,0.684,0.182,0.835
	c-0.047,0.09,0.016,0.025-0.073,0.073c-0.29,0.174-0.569-0.096-0.693-0.218c-0.442-0.433-0.744-0.92-0.948-1.598
	c-0.159-0.53-0.135-1.063-0.219-1.743c0-0.351,0-0.702,0-1.053c-0.108-0.493-0.059-1.036-0.109-1.562
	c-0.12-1.252-0.221-2.252-0.584-3.233c-0.301-0.812-0.795-1.471-1.277-2.107C23.565,4.942,22.912,4.45,22.707,4.141z"/>
<path fill="#FFFFFF" d="M28.034,6.175c0.122,0.036,0.243,0.073,0.365,0.109c0-0.036,0-0.073,0-0.109
	c0.507,0.14,0.994,0.496,1.35,0.763C30.18,7.261,30.55,7.72,30.77,8.245c0.657,1.57-0.25,3.494-0.73,4.649
	c-0.196,0.472-0.339,0.988-0.474,1.489c-0.071,0.264,0.008,0.443-0.219,0.545c-0.158,0.09-0.218-0.053-0.328-0.073
	c-0.11-0.02-0.076,0.107-0.182,0.073c-0.116-0.038-0.171-0.348-0.219-0.472c-0.11-0.288-0.178-0.498-0.256-0.832
	c0-0.169-0.036-0.488-0.036-0.658c-0.031-0.798,0.104-1.603,0.219-2.07c0.123-0.5,0.225-0.941,0.281-1.496
	c0.039-0.385,0.045-0.687-0.026-1.01c-0.108-0.496-0.15-0.934-0.328-1.344C28.35,6.767,28.161,6.529,28.034,6.175z"/>
<path fill="#FFFFFF" d="M1.912,6.683c0.036,0,0.073,0,0.109,0C2.375,7.193,2.968,7.56,3.48,7.918
	c1.767,1.236,4.061,1.935,6.239,2.76c1.443,0.547,3.063,0.993,4.414,1.671c3.184,1.596,5.504,3.512,7.479,6.32
	c0.626,0.889,1.174,1.804,1.642,2.869c0.166,0.377,0.445,0.729,0.474,1.235c-0.012,0-0.024,0-0.036,0c0,0.012,0,0.024,0,0.036
	c-0.224-0.119-0.327-0.348-0.474-0.545c-0.288-0.384-0.68-0.785-1.021-1.126c-1.107-1.106-2.368-2.163-3.721-3.015
	c-1.912-1.203-4.037-1.79-6.311-2.652c-1.408-0.534-2.834-1.162-4.159-1.743c-1.619-0.711-3.128-1.571-4.122-2.906
	c-0.431-0.579-0.934-1.19-1.24-1.889C2.494,8.598,2.42,8.299,2.277,7.955C2.139,7.623,1.854,7.052,1.912,6.683z"/>
<path fill="#FFFFFF" d="M23.4,24.227c-0.358-0.046-1.166-0.707-1.496-0.908c-0.821-0.502-2.09-0.911-3.065-1.235
	c-0.513-0.17-1-0.211-1.532-0.363c-1.791-0.513-3.778-0.812-5.509-1.38c-0.535-0.175-1.031-0.23-1.532-0.436
	c-1.033-0.424-2.12-0.879-2.992-1.489c-0.185-0.13-0.334-0.339-0.511-0.472c-0.75-0.565-1.142-1.391-1.496-2.361
	C5.144,15.241,5,14.757,5.086,14.311c0.036,0,0.073,0,0.109,0c0.85,1.556,4.081,2.095,6.02,2.688
	c2.462,0.753,4.951,1.412,7.041,2.543c0.821,0.444,1.634,0.95,2.371,1.489c0.208,0.152,0.379,0.391,0.584,0.545
	c0.683,0.514,1.219,1.187,1.715,1.889C23.093,23.701,23.345,23.876,23.4,24.227z"/>
<path fill="#FFFFFF" d="M22.671,24.554c-0.157,0.003-0.221,0.048-0.292,0.073c-0.644-0.012-1.289-0.024-1.934-0.036
	c-0.972,0.21-1.992,0.254-2.919,0.472c-0.474,0.112-0.897,0.039-1.386,0.145c-1.146,0.25-3.216,0.171-4.195-0.145
	c-1.455-0.47-2.614-1.423-3.429-2.543c-0.423-0.581-1.002-1.18-1.204-1.961c0.036,0,0.073,0,0.109,0
	c0.273,0.395,0.788,0.65,1.204,0.908c0.732,0.453,1.535,0.741,2.517,0.981c0.398,0.097,0.826,0.063,1.204,0.145
	c0.194,0,0.389,0,0.584,0c0.585,0.128,1.328,0.071,2.007,0.073c1.496,0.002,3.264,0.022,4.487,0.363
	c0.967,0.27,1.734,0.502,2.481,0.944C22.155,24.121,22.605,24.233,22.671,24.554z"/>
<path fill="#FFFFFF" d="M8.442,25.426c0.036,0,0.073,0,0.109,0c0.662,1.003,2.203,1.849,3.721,2.034
	c0.51,0.062,1.423-0.249,1.824-0.399c1.632-0.612,3.018-1.442,4.743-1.998c0.745-0.24,2.053-0.395,2.955-0.145
	c0.496,0.137,0.941,0.339,1.35,0.545c0,0.024,0,0.048,0,0.073c-0.036,0-0.073,0-0.109,0c-0.196-0.133-0.566-0.147-0.876-0.145
	c-0.006,0.173-0.077,0.12-0.328,0.109c-0.19,0.111-0.55,0.043-0.766,0.109c-0.438,0.133-0.847,0.32-1.204,0.545
	c-1.889,1.189-3.199,2.947-5.545,3.705c-0.816,0.264-1.908,0.129-2.554-0.145c-1.459-0.62-2.297-1.594-2.919-3.051
	C8.688,26.294,8.5,25.895,8.442,25.426z"/>
</svg>
