<?xml version="1.0" encoding="utf-8"?>
<!-- Generator: Adobe Illustrator 17.0.0, SVG Export Plug-In . SVG Version: 6.00 Build 0)  -->
<!DOCTYPE svg PUBLIC "-//W3C//DTD SVG 1.1//EN" "http://www.w3.org/Graphics/SVG/1.1/DTD/svg11.dtd">
<svg version="1.1" id="Layer_1" xmlns="http://www.w3.org/2000/svg" xmlns:xlink="http://www.w3.org/1999/xlink" x="0px" y="0px"
	 width="33px" height="30px" viewBox="0 0 33 30" enable-background="new 0 0 33 30" xml:space="preserve">
<g id="Layer_1_1_">
	<path fill="none" stroke="#FFFFFF" stroke-miterlimit="10" d="M28.917,6.349c0,0,0,0.524,0,0.857c-6.342,0-10.658,0.004-17,0.004
		c0-0.333,0-0.857,0-0.857L28.917,6.349z"/>
	<path fill="#FFFFFF" d="M11.479,9.234h1.469l2.563,3.125l-0.063-3.125h2.057c0,0,0.062,5.45,0,7.5c-0.167,0-1.588,0-1.588,0
		l-2.656-3.75l-0.063,3.75h-1.781L11.479,9.234z"/>
	<path fill="#FFFFFF" d="M19.417,9.234c3.333,0,6.667,0,10,0c0,2.5,0,5,0,7.5c-3.333,0-6.667,0-10,0
		C19.417,14.234,19.417,11.734,19.417,9.234z"/>
	<path fill="#FFFFFF" d="M11.917,18.234c5.593,0,10.749,0,17,0c0,0.333,0,0.667,0,1c-5.666,0-11.334,0-17,0
		C11.917,18.901,11.917,18.567,11.917,18.234z"/>
	<path fill="#FFFFFF" d="M11.917,20.234c5.666,0,11.334,0,17,0c0,0.333,0,0.667,0,1c-5.666,0-11.334,0-17,0
		C11.917,20.901,11.917,20.567,11.917,20.234z"/>
	<path fill="#FFFFFF" d="M11.917,22.234c5.666,0,11.334,0,17,0c0,0.333,0,0.667,0,1c-5.666,0-11.334,0-17,0
		C11.917,22.901,11.917,22.567,11.917,22.234z"/>
	<path fill="none" stroke="#D32027" stroke-miterlimit="10" d="M32.391,7.406"/>
</g>
<g id="Layer_2">
	<path fill="none" stroke="#FFFFFF" stroke-miterlimit="10" d="M8.25,3.063h24.154l-0.013,18.124c0-0.039,0.359,7.682-4.891,7.682
		H8.213c0,0-7.109-0.556-7.109-7.555c0-5.94,0.114-14.359,0.114-14.359l6.991,0.002L8.25,3.063z"/>
	<path fill="none" stroke="#FFFFFF" stroke-miterlimit="10" d="M8.213,6.499L8.188,22.373c0,0,0.229,8.169-4.997,4.121"/>
</g>
</svg>
