<?xml version="1.0" encoding="utf-8"?>
<!-- Generator: Adobe Illustrator 17.0.0, SVG Export Plug-In . SVG Version: 6.00 Build 0)  -->
<!DOCTYPE svg PUBLIC "-//W3C//DTD SVG 1.1//EN" "http://www.w3.org/Graphics/SVG/1.1/DTD/svg11.dtd">
<svg version="1.1" id="Layer_1" xmlns="http://www.w3.org/2000/svg" xmlns:xlink="http://www.w3.org/1999/xlink" x="0px" y="0px"
	 width="33px" height="30px" viewBox="0 0 33 30" enable-background="new 0 0 33 30" xml:space="preserve">
<path fill="#FFFFFF" d="M25.935,2.333H7.066H3.029V8.4v1.065v5.003v1.065v5.002V21.6v6.066h4.037h18.87h4.037V21.6v-1.064v-5.003
	v-1.065V9.465V8.4V2.333H25.935z M7.066,26.602H4.094v-5.001h2.972V26.602z M7.066,20.535H4.094v-5.002h2.972V20.535z M7.066,14.468
	H4.094V9.465h2.972V14.468z M7.066,8.4H4.094V3.398h2.972V8.4z M13.961,19.487v-8.973l7.441,4.183L13.961,19.487z M28.907,26.602
	h-2.971v-5.001h2.971C28.907,21.601,28.907,26.602,28.907,26.602z M28.907,20.535h-2.971v-5.002h2.971
	C28.907,15.533,28.907,20.535,28.907,20.535z M28.907,14.468h-2.971V9.465h2.971C28.907,9.466,28.907,14.468,28.907,14.468z
	 M28.907,8.4h-2.971V3.398h2.971C28.907,3.398,28.907,8.4,28.907,8.4z"/>
</svg>
