<?xml version="1.0" encoding="utf-8"?>
<!-- Generator: Adobe Illustrator 17.0.0, SVG Export Plug-In . SVG Version: 6.00 Build 0)  -->
<!DOCTYPE svg PUBLIC "-//W3C//DTD SVG 1.1//EN" "http://www.w3.org/Graphics/SVG/1.1/DTD/svg11.dtd">
<svg version="1.1" xmlns="http://www.w3.org/2000/svg" xmlns:xlink="http://www.w3.org/1999/xlink" x="0px" y="0px" width="33px"
	 height="30px" viewBox="0 0 33 30" enable-background="new 0 0 33 30" xml:space="preserve">
<g id="Layer_1">
	<path fill="none" stroke="#FFFFFF" stroke-miterlimit="10" d="M24.366,18.264c-3.064-0.006-5.585,2.502-5.591,5.562
		c-0.006,3.105,2.498,5.628,5.581,5.624c3.055-0.004,5.572-2.525,5.578-5.589C29.938,20.806,27.415,18.27,24.366,18.264z"/>
	<path fill="#FFFFFF" d="M22.635,23.325c0.052,0.046,0.105,0.09,0.153,0.137c0.242,0.231,0.498,0.451,0.722,0.7
		c0.205,0.229,0.339,0.226,0.553-0.008c0.74-0.811,1.509-1.595,2.257-2.399c0.161-0.173,0.26-0.237,0.451-0.021
		c0.259,0.293,0.558,0.553,0.851,0.815c0.12,0.107,0.143,0.171,0.02,0.299c-1.221,1.279-2.437,2.563-3.652,3.848
		c-0.101,0.106-0.169,0.118-0.28,0.01c-0.705-0.685-1.416-1.362-2.123-2.045c-0.061-0.059-0.162-0.109-0.054-0.22
		c0.339-0.348,0.673-0.7,1.009-1.05C22.566,23.369,22.597,23.353,22.635,23.325z"/>
</g>
<g id="Layer_2">
	<path fill="#FFFFFF" d="M25.949,12.929c0.006-0.191-0.011-0.327-0.083-0.411v-0.001l-0.002,0c-0.07-0.081-0.192-0.114-0.401-0.099
		c-0.567,0.04-1.138-0.001-1.707,0.017l-0.282-0.011c-0.166-0.034-0.226-0.145-0.22-0.402c0.023-1.155,0-2.311,0.012-3.466
		c0.008-0.836-0.033-1.666-0.236-2.478c-0.938-3.72-4.64-6.044-8.636-5.43C10.863,1.19,8.21,4.289,8.185,7.907
		c-0.01,1.376-0.012,2.753,0.006,4.129c0.004,0.311-0.073,0.415-0.394,0.4c-0.594-0.027-1.191,0.017-1.783-0.015
		c-0.375-0.021-0.482,0.077-0.478,0.469c0.021,2.396,0.01,4.792,0.01,7.19c0,2.379,0.012,4.759-0.012,7.138
		C5.53,27.64,5.637,27.744,6.06,27.742h12.072c-1.098-1.287-1.244-4.237-1.04-5.298c1.383-7.203,7.936-5.888,8.839-5.747
		l-0.004-0.277l0.01,0.002C25.951,15.623,25.923,13.726,25.949,12.929z M21.709,12.406H9.702V8.143c0-3.315,2.688-6.003,6.003-6.003
		c3.315,0,6.003,2.688,6.003,6.003V12.406z"/>
</g>
</svg>
