<?xml version="1.0" encoding="utf-8"?>
<!-- Generator: Adobe Illustrator 17.0.0, SVG Export Plug-In . SVG Version: 6.00 Build 0)  -->
<!DOCTYPE svg PUBLIC "-//W3C//DTD SVG 1.1//EN" "http://www.w3.org/Graphics/SVG/1.1/DTD/svg11.dtd">
<svg version="1.1" id="Layer_1" xmlns="http://www.w3.org/2000/svg" xmlns:xlink="http://www.w3.org/1999/xlink" x="0px" y="0px"
	 width="33px" height="30px" viewBox="0 0 33 30" enable-background="new 0 0 33 30" xml:space="preserve">
<g id="Layer_2">
	<path fill="#FFFFFF" d="M26.968,19.319c-0.256,0.126-0.383,0.106-0.511-0.158c-0.932-1.922-1.867-3.844-2.823-5.754
		c-0.157-0.313-0.05-0.418,0.211-0.544c2.143-1.033,0.806,3.807,2.941,2.755 M30.193,9.06c-0.247,0.123-0.383,0.157-0.598,0.269
		c-2.31,1.199-4.154,1.836-6.468,3.028c-0.385,0.198-0.602,0.456-0.397,0.898c0.2,0.425-0.004,0.607-0.388,0.712
		c-0.257,0.07-0.515,0.134-0.782,0.091c-0.956-0.157-1.902-0.337-2.837-0.625c-1.821-0.561-3.671-1.037-5.443,0.198
		c-0.125,0.087-0.286,0.114-0.429,0.173c-1.058,0.428-1.871-0.188-2.722-0.634c-0.101-0.053-0.147-0.167-0.156-0.28
		c-0.026-0.347-0.286-0.461-0.547-0.595c-1.827-0.933-3.5-1.368-5.326-2.307c-0.75-0.387-1.343-0.697-1.343,0.464
		c0,0.379-0.687,8.384-0.687,8.384c0.554,0.264,1.108,0.528,1.663,0.789c0.474,0.223,0.761,0.34,1.163,0.562
		c0.292,0.144,0.737,0.486,0.97,0.019c0.38-0.76,0.366,0.096,1.175,0.456c0.352,0.157,0.671,0.467,1.078,0.413
		c0.494-0.065,1.001,0.29,0.973,0.772c-0.026,0.428-0.084,0.916,0.313,1.152c0.488,0.29,0.964,0.613,1.456,0.87
		c0.344,0.179,0.685,0.345,1.027,0.548c0.493,0.291,0.98,0.56,1.396,0.961c0.189,0.181,0.438,0.158,0.683,0.052
		c0.303-0.13,0.637-0.2,0.922-0.359c0.407-0.225,0.739-0.214,1.149,0.035c0.716,0.433,1.126,0.354,1.702-0.24
		c0.154-0.159,0.26-0.236,0.497-0.177c0.557,0.136,0.991-0.104,1.322-0.542c0.134-0.177,0.239-0.344,0.511-0.347
		c0.531-0.004,0.901-0.311,1.191-0.729c0.109-0.158,0.177-0.312,0.431-0.343c1.08-0.135,1.359-0.43,1.338-1.465
		c-0.007-0.38,0.115-0.547,0.445-0.678c0.696-0.277,1.381-0.582,2.063-0.89c0.281-0.127,0.5-0.168,0.608,0.2
		c0.115,0.392,0.338,0.356,0.653,0.202c1.311-0.645,2.625-1.288,3.94-1.928L30.193,9.06z M4.405,18.842
		c-0.374-0.009-0.616-0.202-0.64-0.55c-0.026-0.383,0.209-0.631,0.6-0.64c0.366-0.007,0.583,0.224,0.593,0.577
		C4.969,18.584,4.755,18.794,4.405,18.842z M7.996,19.826c-0.07,0.144-0.085,0.358-0.199,0.369C7.271,20.232,7,19.825,7.183,19.446
		c0.804-1.665,1.616-3.327,2.413-4.996c0.141-0.296,0.24-0.458,0.617-0.267c0.348,0.177,0.366,0.332,0.208,0.653
		C9.602,16.495,8.807,18.165,7.996,19.826z M13.782,24.834c-0.37,0.063-0.429-0.064-0.47-1.004
		c-1.187,0.328-1.187,0.328-1.325-0.759c-1.138,0.469-1.058,0.455-1.239-0.667c-0.356,0.002-0.762,0.608-1.057-0.055
		c-0.206-0.462,0.382-1.47,0.908-1.601c0.679-0.17,0.469,0.465,0.658,0.756c0.351-0.021,0.601-0.535,0.998-0.262
		c0.356,0.245,0.115,0.659,0.2,1.037c1.069-0.325,1.154-0.258,1.184,0.923c0.37,0.076,0.896-0.748,1.125,0.134
		C14.896,23.845,14.264,24.752,13.782,24.834z M21.437,21.994c-0.35-0.085-0.449,0.011-0.561,0.319
		c-0.205,0.564-0.567,0.977-1.249,0.767c-0.301-0.092-0.323,0.097-0.413,0.271c-0.399,0.786-0.554,0.852-1.307,0.422
		c-0.302-0.173-0.357-0.063-0.45,0.188c-0.138,0.371-0.277,0.79-0.807,0.689c-0.561-0.107-1.288-0.757-1.289-1.14
		c-0.001-0.65-0.195-1.136-0.939-1.181c-0.192-0.012-0.248-0.127-0.322-0.272c-0.122-0.242-0.303-0.467-0.576-0.508
		c-0.352-0.053-0.511-0.253-0.661-0.549c-0.174-0.343-2.008-0.998-2.374-0.869c-0.224,0.079-0.46,0.193-0.623,0.357
		c-0.272,0.273-0.45,0.43-0.85,0.12C8.6,20.287,8.64,20.035,8.84,19.633c0.69-1.379,1.364-2.765,2.008-4.165
		c0.22-0.479,0.485-0.772,1.014-0.643c0.423-0.111,0.57,0.012,0.548,0.445c-0.025,0.477,0.306,0.706,0.757,0.746
		c0.621,0.055,1.234,0.009,1.83-0.184c0.985-0.319,1.829-0.115,2.601,0.593c1.364,1.253,2.758,2.471,4.153,3.692
		c0.313,0.275,0.53,0.589,0.599,0.993C22.48,21.845,22.162,22.171,21.437,21.994z M25.247,19.089
		c-0.676,0.265-1.347,0.55-1.999,0.866c-0.332,0.16-0.541,0.113-0.812-0.132c-1.47-1.333-3.007-2.596-4.427-3.979
		c-0.692-0.674-1.521-0.708-2.384-0.917c-0.173,0.049-0.386,0.097-0.592,0.17c-0.462,0.163-0.93,0.284-1.423,0.243
		c-0.178-0.015-0.437,0.111-0.508-0.157c-0.059-0.224,0.035-0.469,0.243-0.571c0.884-0.432,1.655-1.001,2.8-0.885
		c1.624,0.163,3.076,0.911,4.682,1.099c0.768,0.091,1.485,0.152,2.187-0.196c0.315-0.157,0.494-0.134,0.66,0.22
		c0.581,1.236,1.184,2.461,1.807,3.675C25.651,18.863,25.558,18.967,25.247,19.089z"/>
</g>
<g id="Layer_1_2_">
	<g id="Layer_1_1_">
	</g>
</g>
<circle fill="none" stroke="#FFFFFF" stroke-miterlimit="10" cx="16.502" cy="15" r="14.372"/>
</svg>
