<?xml version="1.0" encoding="utf-8"?>
<!-- Generator: Adobe Illustrator 17.0.0, SVG Export Plug-In . SVG Version: 6.00 Build 0)  -->
<!DOCTYPE svg PUBLIC "-//W3C//DTD SVG 1.1//EN" "http://www.w3.org/Graphics/SVG/1.1/DTD/svg11.dtd">
<svg version="1.1" xmlns="http://www.w3.org/2000/svg" xmlns:xlink="http://www.w3.org/1999/xlink" x="0px" y="0px" width="28px"
	 height="18px" viewBox="0 0.375 28 18" enable-background="new 0 0.375 28 18" xml:space="preserve">
<g id="Layer_1" display="none">
	<g display="inline">
		<path fill="#A38686" d="M1.252,9.371c0-0.58,0.155-1.049,0.346-1.049l28.306,0.01c0.191,0,0.345,0.47,0.345,1.049l0,0
			c0,0.58-0.155,1.049-0.346,1.049L1.596,10.42C1.406,10.42,1.251,9.949,1.252,9.371L1.252,9.371z"/>
		<path fill="#A38686" d="M1.252,16.365c0-0.58,0.155-1.049,0.346-1.049l28.306,0.01c0.191,0,0.345,0.47,0.345,1.049l0,0
			c0,0.58-0.155,1.049-0.346,1.049l-28.307-0.01C1.406,17.414,1.251,16.944,1.252,16.365L1.252,16.365z"/>
		<path fill="#A38686" d="M1.252,2.374c0-0.58,0.155-1.049,0.346-1.049l28.306,0.01c0.191,0,0.345,0.47,0.345,1.049l0,0
			c0,0.58-0.155,1.049-0.346,1.049L1.596,3.423C1.406,3.424,1.251,2.955,1.252,2.374L1.252,2.374z"/>
	</g>
</g>
<g id="Layer_2">
	<rect x="2.313" y="8.579" fill="#FFFFFF" stroke="#FFFFFF" stroke-miterlimit="10" width="23" height="1.268"/>
	<rect x="2.688" y="15.778" fill="#FFFFFF" stroke="#FFFFFF" stroke-miterlimit="10" width="23" height="1.268"/>
	<rect x="2.313" y="1.704" fill="#FFFFFF" stroke="#FFFFFF" stroke-miterlimit="10" width="23" height="1.268"/>
</g>
</svg>
