<?xml version="1.0" encoding="utf-8"?>
<!-- Generator: Adobe Illustrator 17.0.0, SVG Export Plug-In . SVG Version: 6.00 Build 0)  -->
<!DOCTYPE svg PUBLIC "-//W3C//DTD SVG 1.1//EN" "http://www.w3.org/Graphics/SVG/1.1/DTD/svg11.dtd">
<svg version="1.1" id="No_Image" xmlns="http://www.w3.org/2000/svg" xmlns:xlink="http://www.w3.org/1999/xlink" x="0px" y="0px"
	 width="168px" height="96px" viewBox="0 0 168 96" enable-background="new 0 0 168 96" xml:space="preserve">
<rect id="Bg_xA0_Image_2_" fill="#FFFFFF" stroke="#FFFFFF" width="168" height="96"/>
<g id="Images_1_">
	<g id="No_Image_1_">
		<g id="_x1782__x17D2__x1798__x17B6__x1793__x179A__x17BC__x1794__x1797__x17B6__x1796_">
			<text transform="matrix(1 0 0 1 59.2498 79.4998)" fill="#999999" font-family="'Hanuman'" font-size="12">គ្មានរូបភាព</text>
		</g>
	</g>
	<g id="Image_1_">
		<g id="Border_copy">
			<g>
				<rect x="61.167" y="19.909" fill="#FFFFFF" width="48.583" height="44.091"/>
			</g>
			<g>
				<path fill="#999999" d="M109.25,20.409V63.5H61.667V20.409H109.25 M110.25,19.409H60.667V64.5h49.583V19.409L110.25,19.409z"/>
			</g>
		</g>
		<g id="Border">
			<g>
				<rect x="58.25" y="17" fill="#FFFFFF" width="48.583" height="44.091"/>
			</g>
			<g>
				<path fill="#999999" d="M106.333,17.5v43.091H58.75V17.5H106.333 M107.333,16.5H57.75v45.091h49.583V16.5L107.333,16.5z"/>
			</g>
		</g>
		<g id="M_right">
			<g>
				<polygon fill="#999999" points="89.043,25.462 79.389,41.984 82.542,47.424 84.917,51.494 104.254,51.494 				"/>
			</g>
		</g>
		<g id="Layer_7">
			<polygon fill="#999999" points="71.625,33.227 61.333,51.494 82.542,51.494 			"/>
		</g>
		<g id="Sun">
			<g>
				<ellipse fill="#999999" cx="77.155" cy="29.832" rx="3.436" ry="3.395"/>
			</g>
		</g>
	</g>
</g>
</svg>
