<?xml version="1.0" encoding="utf-8"?>
<!-- Generator: Adobe Illustrator 17.0.0, SVG Export Plug-In . SVG Version: 6.00 Build 0)  -->
<!DOCTYPE svg PUBLIC "-//W3C//DTD SVG 1.1//EN" "http://www.w3.org/Graphics/SVG/1.1/DTD/svg11.dtd">
<svg version="1.1" id="Layer_1" xmlns="http://www.w3.org/2000/svg" xmlns:xlink="http://www.w3.org/1999/xlink" x="0px" y="0px"
	 width="282px" height="128px" viewBox="0 0 282 128" enable-background="new 0 0 282 128" xml:space="preserve">
<g id="Bg_xA0_Image_2_" display="none">
	<rect display="inline" fill="#FFFFFF" stroke="#999999" stroke-miterlimit="10" width="282" height="128"/>
</g>
<g id="Images_1_">
	<g id="No_Image_1_">
		<g id="_x1782__x17D2__x1798__x17B6__x1793__x179A__x17BC__x1794__x1797__x17B6__x1796_">
			<text transform="matrix(1 0 0 1 105.2576 108.1475)" fill="#999999" font-family="'Hanuman'" font-size="17.3297">No Image</text>
		</g>
	</g>
	<g id="Image_1_">
		<g id="Border_copy">
			<g>
				<rect x="107.803" y="21.868" fill="#FFFFFF" width="70.606" height="64.118"/>
			</g>
			<g>
				<path fill="#999999" d="M177.909,22.368v63.118h-69.605V22.368H177.909 M178.909,21.368h-71.605v65.118h71.605V21.368
					L178.909,21.368z"/>
			</g>
		</g>
		<g id="Border">
			<g>
				<rect x="103.591" y="17.667" fill="#FFFFFF" width="70.605" height="64.118"/>
			</g>
			<g>
				<path fill="#999999" d="M173.697,18.167v63.118h-69.605V18.167H173.697 M174.697,17.167h-71.605v65.118h71.605V17.167
					L174.697,17.167z"/>
			</g>
		</g>
		<g id="M_right">
			<g>
				<polygon fill="#999999" points="148.283,30.11 134.341,53.969 138.894,61.825 142.324,67.704 170.25,67.704 				"/>
			</g>
		</g>
		<g id="Layer_7">
			<polygon fill="#999999" points="123.129,41.323 108.266,67.704 138.894,67.704 			"/>
		</g>
		<g id="Sun">
			<g>
				<ellipse fill="#999999" cx="131.115" cy="36.42" rx="4.962" ry="4.904"/>
			</g>
		</g>
	</g>
</g>
</svg>
