<?xml version="1.0" encoding="utf-8"?>
<!-- Generator: Adobe Illustrator 17.0.0, SVG Export Plug-In . SVG Version: 6.00 Build 0)  -->
<!DOCTYPE svg PUBLIC "-//W3C//DTD SVG 1.1//EN" "http://www.w3.org/Graphics/SVG/1.1/DTD/svg11.dtd">
<svg version="1.1" id="No_Image" xmlns="http://www.w3.org/2000/svg" xmlns:xlink="http://www.w3.org/1999/xlink" x="0px" y="0px"
	 width="150px" height="150px" viewBox="0 0 150 150" enable-background="new 0 0 150 150" xml:space="preserve">
<rect id="Bg_xA0_Image_2_" fill="#FFFFFF" stroke="#FFFFFF" width="150" height="150"/>
<g id="Images_1_">
	<g id="No_Image_1_">
		<g id="_x1782__x17D2__x1798__x17B6__x1793__x179A__x17BC__x1794__x1797__x17B6__x1796_">
			<g enable-background="new    ">
				<path fill="#999999" d="M33.074,118.975c-0.87-0.474-1.305-0.966-1.305-1.475c0-0.474,0.621-1.042,1.862-1.703
					s2.004-0.992,2.287-0.992c0.283,0,0.832,0.166,1.645,0.499l1.846,0.774c0.212,0.092,0.481,0.138,0.807,0.138
					c0.325,0,0.633-0.07,0.923-0.212l0.615-0.318c0.983-0.587,1.638-0.881,1.963-0.881c0.339,0,0.888,0.155,1.645,0.467
					c2.257,0.941,3.385,1.995,3.385,3.162V128.6h-1.91v-9.529c0-0.771-0.52-1.383-1.56-1.836c-1.04-0.452-1.811-0.679-2.313-0.679
					c-0.474,0-1.09,0.223-1.847,0.668c-0.764,0.439-1.312,0.658-1.645,0.658c-0.34,0-0.782-0.116-1.327-0.351l-1.411-0.583
					c-0.559-0.262-1.111-0.393-1.656-0.393c-0.41,0-0.791,0.099-1.141,0.297s-0.525,0.495-0.525,0.892
					c0,0.233,0.269,0.46,0.807,0.679L33.074,118.975z M34.209,125.118c0.679-0.743,1.387-1.114,2.123-1.114
					c1.061,0,1.592,0.382,1.592,1.146c0,0.566-0.389,0.85-1.167,0.85c0-0.198-0.142-0.297-0.424-0.297
					c-0.715,0-1.245,0.347-1.592,1.039l-0.531,0.935v0.923H32.3v-6.897c0-1.062,0.354-1.857,1.061-2.388
					c0.707-0.53,1.945-0.796,3.714-0.796s3.007,0.266,3.714,0.796s1.061,1.326,1.061,2.388v6.897h-1.91v-6.897
					c0-0.707-0.219-1.238-0.658-1.592c-0.446-0.354-1.182-0.53-2.208-0.53s-1.758,0.177-2.196,0.53
					c-0.446,0.354-0.669,0.885-0.669,1.592C34.209,121.703,34.209,125.118,34.209,125.118z"/>
				<path fill="#999999" d="M33.636,133.841c-0.707,0-1.241-0.17-1.602-0.51c-0.354-0.347-0.531-0.863-0.531-1.549
					c0-0.354,0.131-0.619,0.393-0.796c0.269-0.177,0.668-0.266,1.199-0.266v1.062c0,0.325,0.082,0.565,0.244,0.722
					c0.156,0.162,0.393,0.244,0.711,0.244h0.106c0.064,0,0.099-0.004,0.106-0.011l4.669-0.425v-2.652h1.592v2.652
					c0.708,0,1.238,0.135,1.592,0.403c0.354,0.262,0.53,0.658,0.53,1.188c0,0.53-0.155,0.927-0.467,1.188
					c-0.304,0.269-0.768,0.403-1.39,0.403s-1.086-0.177-1.39-0.53c-0.311-0.354-0.467-0.885-0.467-1.592l-4.669,0.424H34.23
					c-0.106,0.008-0.208,0.017-0.308,0.027C33.823,133.836,33.728,133.841,33.636,133.841z M41.531,133.905
					c0-0.354-0.354-0.53-1.061-0.53c0,0.707,0.173,1.061,0.52,1.061H41C41.354,134.436,41.531,134.258,41.531,133.905z"/>
				<path fill="#999999" d="M54.901,118.486c0,0.658,0.318,1.264,0.955,1.815s1.592,1.05,2.865,1.496l3.82,1.337v2.706
					c0,1.839-1.008,2.759-3.024,2.759c-0.927,0-1.758-0.438-2.494-1.315c-0.736-0.87-1.443-1.306-2.123-1.306v2.621h-1.91v-5.518
					h1.91v1.835c0.884,0,1.733,0.436,2.547,1.306c0.807,0.877,1.496,1.315,2.069,1.315c0.743,0,1.114-0.565,1.114-1.697v-2.059
					l-3.82-1.316c-1.273-0.438-2.229-0.99-2.865-1.655s-0.955-1.439-0.955-2.324c0-1.23,0.354-2.15,1.061-2.759
					c0.707-0.615,1.945-0.923,3.714-0.923s3.007,0.308,3.714,0.923c0.707,0.608,1.061,1.528,1.061,2.759v0.595
					c0,0.212-0.064,0.417-0.191,0.615s-0.305,0.353-0.531,0.462c-0.227,0.109-0.569,0.164-1.029,0.164
					c-0.248,0-0.485-0.055-0.711-0.164c-0.227-0.109-0.403-0.264-0.531-0.462s-0.191-0.403-0.191-0.615s0.065-0.419,0.196-0.621
					c0.131-0.201,0.31-0.355,0.536-0.461c0.155-0.071,0.311-0.117,0.467-0.139c-0.135-0.664-0.414-1.163-0.838-1.496
					c-0.432-0.332-1.083-0.499-1.953-0.499c-1.026,0-1.761,0.22-2.207,0.658C55.121,116.954,54.901,117.609,54.901,118.486z"/>
				<path fill="#999999" d="M68.697,127.56c0,0.693-0.354,1.04-1.061,1.04h-0.849c-1.062,0-1.592-0.944-1.592-2.833
					c0-1.175,0.53-1.762,1.592-1.762v-4.224c0-0.644-0.531-1.064-1.592-1.263c0.12-0.835,0.41-1.662,0.87-2.483
					c0.459-0.82,0.849-1.23,1.167-1.23c0.255,0,0.587,0.131,0.998,0.393l0.616,0.403c0.184,0.113,0.35,0.17,0.499,0.17
					s0.287-0.05,0.414-0.148c-0.036,0.565-0.146,0.995-0.329,1.289c-0.184,0.294-0.421,0.458-0.711,0.493
					c-0.036,0.007-0.071,0.011-0.106,0.011c-0.283,0-0.647-0.127-1.093-0.382c-0.233-0.128-0.428-0.191-0.583-0.191
					c-0.206,0-0.35,0.276-0.435,0.828c1.464,0.36,2.196,0.785,2.196,1.273L68.697,127.56L68.697,127.56z M66.787,125.067
					c-0.354,0-0.531,0.233-0.531,0.7c0,1.089,0.177,1.634,0.531,1.634V125.067z"/>
				<path fill="#999999" d="M66.044,135.496c-0.94,0-1.57-0.233-1.889-0.7c-0.227-0.325-0.339-0.654-0.339-0.987
					c0-0.142,0.021-0.282,0.063-0.424l0.531-1.603c-0.566,0-0.849-0.354-0.849-1.062c0-0.707,0.424-1.061,1.273-1.061
					c0.87,0,1.305,0.441,1.305,1.326c0,0.367-0.074,0.81-0.223,1.326l-0.435,1.369c-0.05,0.127-0.075,0.24-0.075,0.34
					c0,0.275,0.212,0.413,0.637,0.413c0.517,0,1.066-0.796,1.65-2.387c0.583-1.592,1.066-2.388,1.448-2.388
					c0.177,0,0.266,0.244,0.266,0.731c0,0.616-0.241,1.62-0.722,3.014S67.325,135.496,66.044,135.496z"/>
				<path fill="#999999" d="M80.582,119.781c0-0.644-0.46-1.064-1.38-1.263c0.113-0.835,0.39-1.662,0.828-2.483
					c0.438-0.82,0.81-1.23,1.114-1.23c0.24,0,0.559,0.131,0.955,0.393l0.583,0.403c0.177,0.113,0.336,0.17,0.478,0.17
					s0.272-0.05,0.394-0.148c-0.036,0.565-0.141,0.995-0.313,1.289c-0.174,0.294-0.398,0.458-0.674,0.493
					c-0.035,0.007-0.071,0.011-0.106,0.011c-0.269,0-0.615-0.127-1.04-0.382c-0.227-0.128-0.413-0.191-0.563-0.191
					c-0.19,0-0.328,0.276-0.413,0.828c1.365,0.36,2.048,0.785,2.048,1.273v6.473c0,1.062-0.354,1.857-1.062,2.388
					c-0.707,0.53-1.945,0.796-3.714,0.796s-3.007-0.266-3.714-0.796c-0.708-0.53-1.061-1.326-1.061-2.388v-5.635
					c0-0.644-0.46-1.064-1.38-1.263c0.113-0.835,0.407-1.662,0.881-2.483c0.474-0.82,0.863-1.23,1.167-1.23
					c0.24,0,0.559,0.131,0.955,0.393l0.583,0.403c0.177,0.113,0.382,0.17,0.615,0.17c0.121,0,0.252-0.015,0.394-0.043
					c-0.057,0.425-0.188,0.8-0.394,1.125c-0.211,0.333-0.456,0.517-0.731,0.552c-0.036,0.007-0.071,0.011-0.106,0.011
					c-0.269,0-0.615-0.127-1.04-0.382c-0.227-0.128-0.414-0.191-0.563-0.191c-0.191,0-0.329,0.276-0.414,0.828
					c1.295,0.36,1.942,0.785,1.942,1.273v6.473c0,0.708,0.223,1.238,0.669,1.592c0.438,0.354,1.171,0.53,2.196,0.53
					c1.025,0,1.762-0.177,2.207-0.53c0.438-0.354,0.658-0.884,0.658-1.592v-5.637H80.582z"/>
				<path fill="#999999" d="M87.798,119.314c0.707-0.53,1.945-0.796,3.714-0.796s3.007,0.266,3.714,0.796
					c0.708,0.53,1.062,1.326,1.062,2.388v6.897h-1.91v-6.897c0-0.707-0.22-1.238-0.658-1.592c-0.445-0.354-1.182-0.53-2.207-0.53
					c-1.025,0-1.758,0.177-2.196,0.53c-0.446,0.354-0.669,0.885-0.669,1.592c0,0.318,0.177,0.881,0.53,1.688
					c0.354,0.807,0.531,1.666,0.531,2.578c0,1.755-0.708,2.632-2.122,2.632c-1.273,0-1.91-0.768-1.91-2.303
					c0-1.528,0.53-2.292,1.592-2.292h0.201c-0.057-0.163-0.124-0.314-0.201-0.456c-0.354-0.658-0.531-1.273-0.531-1.847
					C86.736,120.641,87.09,119.845,87.798,119.314z M87.511,118.975c-0.87-0.474-1.305-0.966-1.305-1.475
					c0-0.474,0.621-1.042,1.862-1.703s2.004-0.992,2.287-0.992c0.282,0,0.831,0.166,1.645,0.499l1.847,0.774
					c0.212,0.092,0.48,0.138,0.806,0.138c0.326,0,0.634-0.07,0.924-0.212l0.615-0.318c0.983-0.587,1.638-0.881,1.963-0.881
					c0.34,0,0.888,0.155,1.646,0.467c2.256,0.941,3.385,1.995,3.385,3.162V128.6h-1.91v-9.529c0-0.771-0.52-1.383-1.56-1.836
					c-1.04-0.452-1.812-0.679-2.313-0.679c-0.475,0-1.09,0.223-1.847,0.668c-0.764,0.439-1.313,0.658-1.645,0.658
					c-0.34,0-0.782-0.116-1.326-0.351l-1.412-0.583c-0.559-0.262-1.11-0.393-1.655-0.393c-0.41,0-0.79,0.099-1.141,0.297
					c-0.35,0.198-0.525,0.495-0.525,0.892c0,0.233,0.269,0.46,0.807,0.679L87.511,118.975z M87.713,125.067h-0.445
					c-0.354,0-0.531,0.41-0.531,1.23c0,0.736,0.177,1.104,0.531,1.104c0.354,0,0.53-0.478,0.53-1.433
					C87.798,125.592,87.77,125.292,87.713,125.067z"/>
				<path fill="#999999" d="M111.631,117.394c-0.467-0.722-0.944-1.082-1.433-1.082c-0.572,0-0.859,0.559-0.859,1.677v5.306
					c0.778,0,1.362,0.163,1.751,0.488c0.389,0.318,0.584,0.803,0.584,1.453c0,1.02-0.22,1.833-0.658,2.441
					c-0.445,0.615-1.11,0.923-1.995,0.923c-1.061,0-1.592-0.308-1.592-0.923v-9.688c0-0.863,0.266-1.609,0.796-2.239
					c0.531-0.63,1.132-0.944,1.804-0.944c0.665,0,1.391,0.474,2.176,1.422c0.792-0.948,1.524-1.422,2.196-1.422
					c0.665,0,1.263,0.314,1.794,0.944c0.523,0.63,0.785,1.376,0.785,2.239V128.6h-1.91v-10.612c0-1.118-0.283-1.677-0.849-1.677
					c-0.488,0-0.97,0.36-1.443,1.082c-0.156,0.241-0.347,0.361-0.573,0.361S111.787,117.634,111.631,117.394z M109.339,127.22
					c0.425,0,0.743-0.166,0.955-0.498c0.212-0.333,0.318-0.828,0.318-1.486c0-0.297-0.106-0.516-0.318-0.657
					c-0.212-0.148-0.53-0.224-0.955-0.224V127.22z"/>
			</g>
		</g>
	</g>
	<g id="Image_1_">
		<g id="Border_copy">
			<g>
				<rect x="33.648" y="20.677" fill="#FFFFFF" width="87.986" height="79.851"/>
			</g>
			<g>
				<path fill="#999999" d="M120.729,21.583v78.04H34.554v-78.04L120.729,21.583 M122.54,19.772H32.743v81.662h89.797V19.772
					L122.54,19.772z"/>
			</g>
		</g>
		<g id="Border">
			<g>
				<rect x="28.366" y="15.41" fill="#FFFFFF" width="87.986" height="79.851"/>
			</g>
			<g>
				<path fill="#999999" d="M115.446,16.315v78.04H29.271v-78.04L115.446,16.315 M117.257,14.504H27.46v81.662h89.797V14.504
					L117.257,14.504z"/>
			</g>
		</g>
		<g id="M_right">
			<g>
				<polygon fill="#999999" points="84.133,30.735 66.649,60.657 72.359,70.508 76.661,77.88 111.681,77.88 				"/>
			</g>
		</g>
		<g id="Layer_7">
			<polygon fill="#999999" points="52.588,44.797 33.949,77.88 72.359,77.88 			"/>
		</g>
		<g id="Sun">
			<g>
				<ellipse fill="#999999" cx="62.603" cy="38.649" rx="6.223" ry="6.148"/>
			</g>
		</g>
	</g>
</g>
</svg>
