<?xml version="1.0" encoding="utf-8"?>
<!-- Generator: Adobe Illustrator 17.0.0, SVG Export Plug-In . SVG Version: 6.00 Build 0)  -->
<!DOCTYPE svg PUBLIC "-//W3C//DTD SVG 1.1//EN" "http://www.w3.org/Graphics/SVG/1.1/DTD/svg11.dtd">
<svg version="1.1" id="No_Image" xmlns="http://www.w3.org/2000/svg" xmlns:xlink="http://www.w3.org/1999/xlink" x="0px" y="0px"
	 width="150px" height="150px" viewBox="0 0 150 150" enable-background="new 0 0 150 150" xml:space="preserve">
<rect id="Bg_xA0_Image_2_" fill="#FFFFFF" stroke="#FFFFFF" width="150" height="150"/>
<g id="Images_1_">
	<g id="No_Image_1_">
		<g id="_x1782__x17D2__x1798__x17B6__x1793__x179A__x17BC__x1794__x1797__x17B6__x1796_">
			<g enable-background="new    ">
				<path fill="#999999" d="M33.645,116.398v13.35h-1.581v-15.805h1.981l7.723,13.329v-13.329h1.581v15.805h-1.97L33.645,116.398z"
					/>
				<path fill="#999999" d="M45.751,123.742c0-2.002,0.417-3.505,1.254-4.51c0.835-0.997,2.086-1.496,3.751-1.496
					c1.671,0,2.925,0.499,3.761,1.496c0.829,1.005,1.243,2.508,1.243,4.51s-0.415,3.502-1.243,4.499
					c-0.836,1.005-2.09,1.507-3.761,1.507c-1.665,0-2.916-0.502-3.751-1.507C46.169,127.244,45.751,125.744,45.751,123.742z
					 M54.181,123.742c0-1.531-0.271-2.651-0.812-3.361c-0.548-0.709-1.419-1.063-2.613-1.063s-2.062,0.354-2.603,1.063
					c-0.548,0.71-0.822,1.83-0.822,3.361c0,1.524,0.274,2.642,0.822,3.351c0.541,0.717,1.408,1.075,2.603,1.075
					c1.194,0,2.065-0.358,2.613-1.075C53.91,126.383,54.181,125.266,54.181,123.742z"/>
				<path fill="#999999" d="M65.601,115.523h-1.58v-1.58h4.741v1.58h-1.581v12.645h1.581v1.58h-4.741v-1.58h1.58V115.523z"/>
				<path fill="#999999" d="M79.816,122.371v7.376h-1.582v-7.48c0-1.967-0.771-2.95-2.316-2.95c-0.963,0-1.696,0.425-2.198,1.274
					c-0.502,0.85-0.753,1.443-0.753,1.78v7.376h-1.581v-12.011h1.581v2.076c0.956-1.384,2.044-2.076,3.266-2.076
					c1.736,0,2.838,0.815,3.309,2.444l0.275-0.368c0.955-1.384,2.043-2.076,3.266-2.076c2.389,0,3.582,1.546,3.582,4.636v7.376
					h-1.58v-7.48c0-1.967-0.773-2.95-2.318-2.95c-0.963,0-1.695,0.425-2.197,1.274S79.816,122.035,79.816,122.371z"/>
				<path fill="#999999" d="M88.824,120.791c0-1.019,0.397-1.784,1.191-2.297c0.786-0.506,1.97-0.759,3.551-0.759
					c1.58,0,2.768,0.271,3.561,0.812c0.787,0.548,1.181,1.366,1.181,2.455v8.745h-1.581v-1.96c-0.583,0.653-1.208,1.142-1.875,1.465
					c-0.667,0.33-1.377,0.495-2.128,0.495c-1.3,0-2.272-0.281-2.919-0.843c-0.653-0.569-0.98-1.415-0.98-2.539
					c0-1.096,0.439-1.975,1.317-2.635c0.871-0.667,2.182-1.113,3.931-1.338c1.77-0.238,2.654-0.562,2.654-0.97v-0.421
					c0-0.562-0.263-0.983-0.79-1.265c-0.526-0.28-1.316-0.421-2.37-0.421s-1.844,0.123-2.371,0.368
					c-0.526,0.246-0.79,0.615-0.79,1.106h-1.582V120.791z M96.726,123.215c-0.61,0.253-1.401,0.445-2.37,0.579
					c-1.313,0.183-2.301,0.488-2.961,0.917s-0.99,0.979-0.99,1.654c0,0.597,0.193,1.046,0.579,1.349
					c0.387,0.302,0.966,0.453,1.739,0.453c0.751,0,1.461-0.19,2.128-0.569s1.292-0.944,1.875-1.696V123.215z"/>
				<path fill="#999999" d="M108.475,128.377v-0.39c-0.674,1.174-1.728,1.76-3.16,1.76c-3.161,0-4.742-2.002-4.742-6.006
					s1.581-6.006,4.742-6.006c1.433,0,2.486,0.587,3.16,1.76v-1.76h1.581v10.642c0,3.442-1.511,5.163-4.531,5.163
					c-2.599,0-4.179-0.966-4.741-2.897l1.317-0.211c0.491,1.019,1.633,1.528,3.424,1.528
					C107.491,131.96,108.475,130.766,108.475,128.377z M105.314,119.317c-2.107,0-3.161,1.475-3.161,4.425s1.054,4.426,3.161,4.426
					c1.032,0,1.817-0.392,2.354-1.175s0.806-1.867,0.806-3.251c0-1.391-0.269-2.476-0.806-3.256
					C107.132,119.706,106.347,119.317,105.314,119.317z"/>
				<path fill="#999999" d="M113.901,124.005c0.035,1.391,0.309,2.42,0.821,3.087c0.541,0.717,1.408,1.075,2.603,1.075
					s2.065-0.358,2.613-1.075c0.218-0.288,0.394-0.643,0.527-1.064h1.644c-0.204,0.899-0.545,1.637-1.022,2.213
					c-0.836,1.005-2.09,1.507-3.762,1.507c-1.664,0-2.915-0.5-3.751-1.501c-0.836-1.001-1.254-2.503-1.254-4.505
					s0.418-3.503,1.254-4.504s2.087-1.502,3.751-1.502c1.672,0,2.924,0.501,3.757,1.502c0.832,1.001,1.248,2.502,1.248,4.504v0.264
					L113.901,124.005L113.901,124.005z M120.666,122.424c-0.113-0.878-0.355-1.559-0.728-2.044
					c-0.548-0.709-1.419-1.063-2.613-1.063s-2.062,0.354-2.603,1.063c-0.379,0.485-0.625,1.166-0.737,2.044H120.666z"/>
			</g>
		</g>
	</g>
	<g id="Image_1_">
		<g id="Border_copy">
			<g>
				<rect x="33.816" y="22.59" fill="#FFFFFF" width="87.363" height="79.285"/>
			</g>
			<g>
				<path fill="#999999" d="M120.279,23.489v77.487H34.715V23.489H120.279 M122.078,21.691H32.917v81.083h89.161V21.691
					L122.078,21.691z"/>
			</g>
		</g>
		<g id="Border">
			<g>
				<rect x="28.57" y="17.359" fill="#FFFFFF" width="87.363" height="79.285"/>
			</g>
			<g>
				<path fill="#999999" d="M115.034,18.258v77.487H29.469V18.258H115.034 M116.832,16.46H27.671v81.083h89.161V16.46L116.832,16.46
					z"/>
			</g>
		</g>
		<g id="M_right">
			<g>
				<polygon fill="#999999" points="83.943,32.576 66.583,62.286 72.253,72.068 76.523,79.387 111.296,79.387 				"/>
			</g>
		</g>
		<g id="Layer_7">
			<polygon fill="#999999" points="52.622,46.539 34.114,79.387 72.253,79.387 			"/>
		</g>
		<g id="Sun">
			<g>
				<ellipse fill="#999999" cx="62.566" cy="40.434" rx="6.179" ry="6.105"/>
			</g>
		</g>
	</g>
</g>
</svg>
